# xmcd CD database file
#
# Track frame offsets:
#	150
#	24807
#	40020
#	45173
#	65905
#	84506
#	100298
#	117287
#	130166
#	155822
#	170766
#	185863
#
# Disc length: 2737 seconds
#
# Revision: 2
# Processed by: cddbd v1.5.1PL0 Copyright (c) Steve Scherf et al.
# Submitted via: jetAudio 5
#
DISCID=9f0aaf0c
DTITLE=Peter Gelling  - Doug Williams - Fortune
DYEAR=1900
DGENRE=
TTITLE0=Elenor Rigby
TTITLE1=If It Wasn't For The Blues
TTITLE2=Mary Don't You Weep
TTITLE3=Bird On A Wire
TTITLE4=Nobody's Fault But Mine
TTITLE5=Home On The Grange
TTITLE6=Strong Medicine
TTITLE7=Too Late
TTITLE8=No Tomorrow
TTITLE9=Tell Me Blues
TTITLE10=Five Wheel Drive
TTITLE11=There But For Fortune
EXTD=
EXTT0=
EXTT1=
EXTT2=
EXTT3=
EXTT4=
EXTT5=
EXTT6=
EXTT7=
EXTT8=
EXTT9=
EXTT10=
EXTT11=
PLAYORDER=
